<?xml version="1.0" encoding="UTF-8"?>
<!DOCTYPE svg PUBLIC "-//W3C//DTD SVG 1.1//EN" "http://www.w3.org/Graphics/SVG/1.1/DTD/svg11.dtd">
<!-- Creator: CorelDRAW Home & Student X8 -->
<svg xmlns="http://www.w3.org/2000/svg" xml:space="preserve" width="15.7689mm" height="17.0001mm" version="1.1" style="shape-rendering:geometricPrecision; text-rendering:geometricPrecision; image-rendering:optimizeQuality; fill-rule:evenodd; clip-rule:evenodd"
viewBox="0 0 126 136"
 xmlns:xlink="http://www.w3.org/1999/xlink">
 <defs>
  <style type="text/css">
   <![CDATA[
    .fil0 {fill:#1D1E16}
    .fil5 {fill:#273672}
    .fil4 {fill:#425AB4}
    .fil8 {fill:#444546}
    .fil9 {fill:#7D7D7D}
    .fil1 {fill:#819AA9}
    .fil7 {fill:#A8AEC1}
    .fil6 {fill:#D1D3D2}
    .fil2 {fill:#D7DFE4}
    .fil3 {fill:#E2EAFD}
   ]]>
  </style>
 </defs>
 <g id="Capa_x0020_1">
  <metadata id="CorelCorpID_0Corel-Layer"/>
  <g id="_531330704">
   <path class="fil0" d="M76 110c-2,1 -2,-1 -3,-1 -1,0 -2,0 -3,-1 0,0 -3,-6 -3,-6 -1,0 -4,1 -6,2 -4,1 -6,4 -10,5 -2,1 -2,1 -5,1 -1,0 0,1 -1,1l-1 0c0,1 0,3 0,4 0,2 0,3 0,5 0,4 -1,7 2,6 1,0 0,-5 1,-5 1,1 0,2 0,3 0,0 0,2 0,2 1,2 2,3 3,4l1 0c0,0 0,0 0,0 0,0 0,0 0,0 0,0 0,0 1,0 0,0 -1,0 0,0 0,0 0,0 0,0 0,0 0,0 0,0 0,-1 0,-2 1,-3 0,0 0,0 0,0l1 -3c1,0 1,0 1,-1 0,0 0,0 0,0l1 0c0,0 0,-1 1,-1l1 -1c1,0 -1,1 1,0l1 0c0,0 0,0 0,0 1,-1 1,-1 2,-1l1 0c2,0 3,0 4,0l0 0c2,0 1,0 2,1 1,0 2,0 2,0l1 1c1,0 2,0 2,1 1,1 2,1 3,2 0,2 1,2 1,4l18 0c0,-2 0,-2 1,-3 0,0 0,0 0,0 0,0 0,0 0,0l1 -1c0,-1 1,-1 1,-2l1 0c0,0 0,-1 0,-1l0 0c0,0 0,0 1,-1 1,-1 2,-1 2,-1 0,0 0,0 0,0l2 -2c0,0 0,0 0,0 0,0 0,0 1,0l2 -1c1,0 1,0 1,0 0,0 0,0 1,0 0,0 1,0 2,0 1,-1 6,-1 7,-1 0,0 1,0 2,0l2 1c0,0 0,0 0,0 0,0 0,0 0,0 1,0 1,-1 1,-1 0,-3 0,-9 0,-11 -1,-1 -1,-1 -2,-1 0,-1 0,-1 -1,-1 -2,-1 -3,-1 -5,-1 0,0 -1,0 -2,0l-15 -2c-2,0 -9,0 -10,0 -1,1 -3,3 -4,4 -1,0 -3,3 -4,3 0,1 0,1 0,2 -2,1 -2,0 -3,-1 0,0 0,0 0,0 0,2 -1,2 -2,1l0 1z"/>
   <path class="fil0" d="M73 2c0,0 -1,0 -2,1 0,0 0,0 -1,0 0,1 1,0 0,1 -1,1 0,1 -1,1 0,1 0,0 -1,1 0,1 0,1 0,1 0,1 0,1 0,2 -1,0 -1,0 -1,0 0,0 0,0 0,0 0,0 0,0 0,0 -1,-1 -1,0 -2,0 -1,0 -1,0 -2,0 -1,0 -1,1 -2,1l0 0c-1,1 -2,4 -2,4 0,1 0,1 -1,1l1 0 -1 1c0,3 1,4 2,6 0,0 0,1 0,1 0,1 0,2 0,3l0 0c-1,1 -1,1 -1,2 -1,0 -1,1 -1,1 -1,1 -1,2 -2,2l0 1c-1,0 -2,1 -2,2 0,0 0,0 0,0l-1 2c-1,0 -1,0 -1,0l0 0c0,1 0,2 0,3l2 1c0,1 0,1 0,1 0,0 1,0 1,0 0,1 0,1 0,1 1,0 1,0 1,1l0 0c1,0 1,0 1,1 1,0 1,0 1,0 0,1 0,1 1,1l1 0c0,0 0,-1 1,-1l0 -1c1,-1 0,0 1,-1 0,0 0,-1 1,-1 1,-2 2,-3 3,-4 0,0 1,-1 1,-1l1 0c0,-1 0,-1 1,-1 0,0 0,0 0,-1l3 -2c1,0 0,0 1,-1 2,-1 0,0 1,0 1,-1 1,-1 2,-1l0 -1c-1,0 -1,1 -2,1 -1,0 -2,0 -2,-1l0 0c-1,0 -1,0 -2,0 0,0 0,0 0,-1 -1,0 0,1 -1,0 0,0 0,-1 -1,-1 0,-1 0,-1 -1,-2 0,-1 -1,-3 -1,-4l0 0c-1,-1 0,-5 0,-5 0,-1 1,-1 1,-1 1,0 1,0 2,0 0,0 1,0 2,-1 0,0 -1,0 0,0 0,0 0,0 0,0 0,0 1,1 1,1 0,1 1,0 1,1 1,1 0,0 1,0 0,1 0,0 0,1l0 0c1,0 4,2 6,1 0,0 0,0 1,0 0,-1 -1,0 0,-1l0 0c0,0 0,0 0,0l1 -1c0,0 1,-1 2,0 1,0 1,0 2,1 1,2 0,4 -2,5l0 0c0,0 0,0 0,1l0 0c1,1 0,0 1,1 0,0 0,0 0,0 0,1 0,1 1,1l0 0c0,1 0,0 0,1 0,0 0,0 0,0l0 1c1,0 1,0 1,0 0,0 0,0 0,1 1,0 3,0 4,1 0,1 0,1 1,1 1,1 4,1 6,1 1,0 2,1 3,1 0,0 1,1 2,1 0,0 0,0 0,0 0,0 0,0 0,-1 0,0 -2,-3 -2,-4 -1,0 -2,-2 -2,-3l0 0 -1 0c0,0 0,-1 0,-1 -1,0 -1,0 -1,0l-3 -3c0,-1 -1,-1 -1,-2 0,0 -1,-1 -1,-1 0,0 -1,-1 -1,-1 0,0 0,-1 -1,-1l0 0c0,-1 0,-1 -1,-2 0,0 0,0 0,-1l-1 -1c0,0 0,0 0,0 0,-1 -1,-1 -1,-1 0,0 0,0 0,0 0,-1 0,-1 0,-1l0 0c-1,-1 -1,-1 -1,-2 -1,-1 -1,-1 -2,-2 -1,-1 -2,-2 -2,-2 0,0 0,0 -1,0l-1 -1c0,-1 0,0 -1,-1 -1,0 0,0 -1,0 -1,0 -1,-1 -2,0 -1,0 0,0 -1,-1 -1,1 -1,1 -2,1z"/>
   <path class="fil1" d="M112 117c-1,0 -1,0 -2,0 0,0 0,0 -1,0 0,0 0,1 0,1l-3 1c0,0 0,0 0,0 0,0 0,0 0,0l-3 1c0,0 0,0 0,0 0,0 -1,1 -2,1 0,1 -1,1 -1,1l0 1c0,0 0,0 0,0l-1 0c0,1 -1,2 -1,2l-1 1c0,0 0,0 0,1 0,0 0,0 0,0 -1,1 -1,1 -1,2l-18 0c0,-1 0,-2 -1,-3 -1,-2 -1,-2 -2,-3 -1,-1 -2,-1 -3,-1l0 0c-1,-1 -2,-1 -2,-1 -1,0 -1,0 -2,0l0 -1c-2,0 -3,0 -4,0l-1 0c-2,0 -2,1 -3,1 0,0 0,0 0,0l-1 0c-1,1 0,0 -1,1l-1 1c0,0 0,0 -1,0l0 1c-1,0 -1,0 -1,0 0,0 0,0 0,1l-2 2c0,0 0,0 0,1 0,1 0,1 0,2 0,0 0,0 0,0 0,1 -1,1 -1,1 0,0 0,0 0,0 -1,0 0,0 -1,0 0,0 0,0 0,0 0,-1 0,-1 0,-1l-1 0c1,0 1,1 2,1 1,0 0,0 1,1 -1,0 -1,0 -1,0 -1,0 -1,-1 -1,-1 0,1 0,1 1,1l5 0c8,0 66,0 67,0 1,0 1,0 1,-1l0 0c1,-2 1,-12 1,-13l-14 -1z"/>
   <path class="fil2" d="M95 69l-1 1c-1,0 0,4 0,5 0,1 0,1 -1,1l-3 3c-1,1 -1,1 -2,2 -2,2 -7,6 -8,8 -1,1 -3,3 -4,5 -1,0 -4,4 -4,5 0,1 0,0 0,1 0,0 0,0 1,-1 0,0 1,-1 1,-1 1,0 0,1 2,1l0 1 -1 0c-1,1 -1,1 -2,2 -1,1 -2,2 -2,3 -1,1 -1,2 -1,3 1,0 1,0 2,-1 0,-1 0,0 0,0 1,-3 3,-4 4,-6 0,0 0,0 0,0 1,0 1,0 1,0 0,1 -1,1 -1,2l-3 4c0,0 0,0 0,0 -1,1 -1,0 -1,2 1,0 1,0 2,-1 1,0 1,-1 1,-1 0,0 1,0 1,-1 0,0 0,0 1,0 0,0 0,0 0,0 0,0 0,0 0,0l0 -1c1,0 0,0 1,0l1 -1c0,0 0,-1 1,-1l0 0c0,-1 0,-1 1,-1 0,0 1,0 0,1l0 0 -1 0 -1 2c0,0 0,0 0,0 0,0 0,0 0,0 0,1 -1,2 -1,3 1,0 1,-1 2,-1l11 -10c1,-1 7,-6 7,-6 1,-1 1,-1 2,-2 1,0 1,0 1,-1l1 0c1,0 2,-2 3,-2 0,-1 1,-1 1,-2 1,0 1,-1 2,-1 1,-1 2,-2 3,-3 0,-1 1,-3 1,-4 0,-2 1,-3 0,-5 0,-2 0,-3 0,-5 -1,0 -2,1 -3,1 -2,0 -1,0 -3,0 -1,1 0,1 -1,1 -1,0 -9,1 -10,1z"/>
   <path class="fil0" d="M0 117l0 2c1,0 0,1 1,2l1 0c0,0 0,1 0,1l10 0c0,-2 0,-3 2,-3 2,-1 1,-1 4,-1l4 1c2,0 3,0 3,2 4,0 3,0 7,0 0,0 1,0 2,0 2,-1 3,-1 4,-2 0,0 0,-1 1,-1 0,-1 0,-2 1,-2 0,-1 1,-2 1,-2l0 0c0,-2 5,-6 1,-10 -3,-1 -10,0 -12,-1 0,-1 0,-4 -1,-4 -1,0 -4,2 -5,3 -4,2 -3,2 -5,1 -2,-1 -8,1 -11,3 -1,0 -2,1 -3,3 -2,1 -5,6 -5,8z"/>
   <path class="fil2" d="M55 85c1,1 2,2 2,3l8 14 0 0c1,1 2,5 3,7 1,0 1,1 2,1 0,-1 0,-1 -1,-2 0,-1 1,-1 0,-3 -1,-1 -2,-2 -1,-2 0,0 0,0 0,0 1,1 1,1 1,1 0,0 0,0 0,0 0,0 0,0 0,0l1 0c0,-1 0,-1 0,-2 0,0 0,0 0,-1 1,-2 1,-2 2,-4 2,-3 2,-1 0,-7 -4,-8 -6,-11 -3,-18 0,-1 0,-2 0,-4 -5,-1 -4,-1 -11,-3 0,-1 0,0 0,-1l0 0c0,0 0,0 0,0 -1,0 -1,0 -1,0l0 0c0,0 0,0 0,0 -1,-1 -1,-1 -2,-1l0 1c0,0 -1,18 0,21z"/>
   <path class="fil0" d="M35 122c0,1 1,1 0,1 0,0 0,0 -1,0l-4 0c-1,0 -2,0 -5,0 0,1 0,1 -1,2 0,0 0,0 0,0l0 0c0,0 0,0 0,0 0,0 -1,1 -1,1 0,0 0,0 0,0 0,0 0,0 0,0 0,0 0,0 0,0 0,0 0,0 0,0 -1,0 -3,0 -4,0 -1,0 -4,0 -4,0 -2,0 -2,-2 -3,-2l-2 0c-1,0 -1,0 -2,0 -2,0 -4,0 -5,0 -1,-1 -1,0 -1,0 0,-1 1,-1 0,-1 0,0 0,0 -1,0 0,1 0,4 1,5 0,0 0,0 0,1 1,1 0,0 1,2 1,1 3,3 5,4 0,0 1,1 -1,0 0,0 0,0 0,0l1 1c0,-1 -1,-1 1,-1 0,0 2,1 6,1 2,0 5,0 7,0 2,0 5,0 6,-2 0,0 0,0 0,0 2,-1 3,-2 3,-4l9 0 0 -11c0,0 0,0 0,0l0 0c-2,2 -3,3 -5,3z"/>
   <path class="fil2" d="M69 15l-1 0c0,1 -1,0 -2,1 0,1 0,3 0,5l0 0c1,0 0,0 1,0 0,1 0,1 0,2 1,2 1,3 3,4l0 1c0,0 0,0 0,0 0,0 0,0 1,1 0,0 0,0 1,0l0 0c3,0 3,0 5,-1 4,-3 3,-6 5,-6l2 0 0 0c1,-1 3,-3 1,-5 0,0 0,0 0,0 0,0 0,0 0,0 0,0 0,0 0,0 -1,-2 -3,-1 -4,0 0,0 0,0 0,0 0,1 0,1 -1,2 -1,0 -5,-1 -6,-2l0 0c-1,0 -1,0 -1,-1 -1,0 -2,-1 -2,-2l0 0c-1,1 -2,1 -2,1z"/>
   <path class="fil2" d="M76 30l1 2c1,1 1,1 1,2 1,1 2,4 2,4 1,1 1,1 1,1 1,0 1,-1 1,-1l5 -7c1,0 1,0 1,-1 0,-2 -2,-2 -2,-3 0,0 0,0 0,-1 0,0 0,0 0,0 0,0 0,0 0,-1l0 0c-1,0 -1,0 -1,0 0,0 0,0 0,-1 0,0 0,0 -1,-1l0 0c0,0 0,-1 -1,0 -2,0 -1,0 -3,3 0,1 -1,1 -2,2 0,1 -1,1 -2,1l0 1z"/>
   <path class="fil3" d="M71 3c1,-1 2,-1 2,-1 1,-1 0,0 1,-1l0 0 0 -1 -4 0 0 3c0,0 0,0 0,0l1 0c0,0 0,0 0,0z"/>
   <path class="fil4" d="M102 33l2 0c-1,-1 0,0 -1,0 0,0 0,0 0,0 -1,0 -2,-1 -2,-1 -1,0 -2,-1 -3,-1 -2,0 -5,0 -6,-1 -1,0 -1,0 -1,-1 -1,-1 -3,-1 -4,-1 1,1 1,0 3,1l1 1c0,0 0,0 0,1 3,0 8,0 11,2z"/>
   <path class="fil5" d="M69 35l0 0c1,0 0,0 1,0 0,-1 1,-1 2,-2 0,0 1,0 1,0 0,-1 0,-1 1,-1 0,-1 0,-1 0,-1 0,0 1,0 1,0 0,0 0,0 1,0l0 -1c-1,0 -1,0 -2,1 -1,0 1,-1 -1,0 -1,1 0,1 -1,1l-3 2c0,1 0,1 0,1z"/>
   <path class="fil5" d="M62 42c0,0 0,0 2,-2 1,-2 4,-3 4,-4l-1 0c0,0 -1,1 -1,1 -1,1 -2,2 -3,4 -1,0 -1,1 -1,1z"/>
   <path class="fil6" d="M82 19c-1,1 -1,1 -1,1l1 0c1,-1 2,-1 3,-2l-1 0c-1,-1 -2,1 -2,1z"/>
   <path class="fil7" d="M81 17c1,-1 3,-2 4,0 0,0 0,0 0,0 0,0 0,0 0,0 0,0 0,0 0,0 2,2 0,4 -1,5 2,-1 3,-3 2,-5 -1,-1 -1,-1 -2,-1 -1,-1 -2,0 -2,0l-1 1z"/>
   <path class="fil7" d="M69 28c1,0 1,0 1,0 1,1 0,0 1,1 -1,-1 -1,-1 -1,-1 0,0 0,0 0,0l0 -1c-2,-1 -2,-2 -3,-4 0,-1 0,-1 0,-2 -1,0 0,0 -1,0 0,1 1,3 1,4 1,1 1,1 1,2 1,0 1,1 1,1z"/>
   <path class="fil8" d="M66 21c0,-2 0,-4 0,-5 1,-1 2,0 2,-1l1 0c-1,0 -1,0 -2,0 0,0 -1,0 -1,1 0,0 -1,4 0,5z"/>
   <path class="fil9" d="M81 17l0 0c-1,1 0,0 0,1 -1,0 -1,0 -1,0 -2,1 -5,-1 -6,-1 1,1 5,2 6,2 1,-1 1,-1 1,-2z"/>
   <path class="fil7" d="M94 21l3 3c0,0 0,0 1,0 0,0 0,1 0,1l1 0c0,0 -1,0 -1,-1 -1,-1 -1,-1 -2,-2 0,0 -2,-2 -2,-3 0,0 0,1 0,1l0 1z"/>
   <path class="fil6" d="M102 88l-1 0c0,1 0,1 -1,1 -1,1 -1,1 -2,2 1,-1 1,-1 1,-1 1,-1 1,-1 1,-1 0,1 1,0 -1,2 0,0 0,0 -1,1l2 -2c0,0 0,0 1,0 0,0 0,0 0,-1 1,0 2,0 2,0 1,-1 1,0 2,-1 0,0 -1,0 -2,1 -1,0 -1,0 -2,0 0,0 0,0 1,-1z"/>
   <path class="fil4" d="M69 35c-1,0 -1,0 -1,1 0,1 -3,2 -4,4 0,0 1,-1 2,-2l1 -1c2,-2 2,-1 3,-2 -1,0 0,0 -1,0l0 0z"/>
   <path class="fil8" d="M67 8c-1,0 -1,0 -2,0 -1,1 -1,0 -2,1 1,0 1,0 2,0 1,0 1,-1 2,0 0,0 0,0 0,0 0,0 0,0 0,0 0,0 0,0 1,0 0,-1 0,-1 0,-2 0,0 0,0 0,-1 0,0 0,0 0,0 0,0 0,0 0,1 0,0 0,1 -1,1l0 0z"/>
   <path class="fil9" d="M58 15c1,0 1,0 1,-1 0,0 1,-3 2,-4l0 0c0,0 0,0 0,0 0,0 0,0 0,0 -2,1 -2,3 -3,5z"/>
   <path class="fil9" d="M61 10c1,0 1,-1 2,-1 1,-1 1,0 2,-1 1,0 1,0 2,0 0,0 0,0 0,0 -1,0 -2,0 -3,0 -1,1 -2,1 -2,1 -1,1 -1,1 -1,1z"/>
   <path class="fil9" d="M82 19l0 1c1,0 0,0 1,-1 1,-1 1,0 1,-1 -1,0 -1,1 -2,1z"/>
   <path class="fil9" d="M73 2c1,0 1,0 2,-1 1,1 0,1 1,1 0,-1 1,-1 0,-1 0,0 -1,0 -1,0l0 -1 -1 0 0 1 0 0c-1,1 0,0 -1,1z"/>
   <path class="fil5" d="M59 45c0,0 0,0 0,0 0,0 0,1 1,1l0 0 1 -3c1,0 1,0 1,-1 -1,1 0,0 -1,1l0 1c-1,0 -1,1 -1,1l-1 0z"/>
   <path class="fil8" d="M52 36c-1,2 1,3 1,4l1 0 -2 -1c0,-1 0,-2 0,-3l0 0 0 0z"/>
   <path class="fil8" d="M101 28l-1 0c0,-1 -1,-2 -1,-3 0,1 1,3 2,3z"/>
   <path class="fil8" d="M73 16l0 0c0,-1 -1,0 -1,-1 0,0 -1,-1 -1,-1 0,0 0,0 0,0 -1,0 0,0 0,0l0 0c0,1 1,2 2,2z"/>
   <path class="fil9" d="M82 4c0,-1 -1,-1 -2,-2 0,0 0,0 -1,0 1,1 1,0 1,1l1 1c1,0 1,0 1,0z"/>
   <path class="fil9" d="M90 16c0,0 0,0 0,0 0,0 0,-1 0,-1 0,0 -1,-2 -1,-2 0,1 0,1 0,1 1,1 1,1 1,2l0 0z"/>
   <path class="fil8" d="M56 32l0 -1c1,0 1,-1 2,-2 -1,1 -2,2 -2,3z"/>
   <path class="fil8" d="M72 29c-1,0 -1,0 -1,0 -1,-1 0,0 -1,-1 0,0 0,0 -1,0 1,1 0,0 1,0 0,1 0,1 0,1 1,0 1,0 2,0z"/>
   <path class="fil9" d="M52 36c0,0 0,0 1,0l1 -2c0,0 0,0 0,0 -1,0 -1,0 -1,0 0,1 -1,1 -1,2z"/>
   <path class="fil7" d="M58 44c0,0 0,0 -1,0 0,-1 0,-1 -1,-1 1,1 1,1 2,1z"/>
   <path class="fil9" d="M69 5c1,0 0,0 1,-1 1,-1 0,0 0,-1 0,1 -1,1 -1,2z"/>
   <path class="fil8" d="M94 21l0 -1c0,0 0,-1 0,-1 -1,0 -1,0 -1,0 0,1 1,1 1,2z"/>
   <path class="fil9" d="M86 25c-1,0 -1,0 -1,-1 0,0 0,0 0,0 -1,-1 0,0 -1,-1 1,1 1,1 1,1 0,1 0,1 0,1 0,0 0,0 1,0z"/>
   <path class="fil8" d="M2 110l0 1c1,0 1,0 1,-2 -1,1 -1,1 -1,1z"/>
   <path class="fil8" d="M3 107l1 0c-1,2 -1,1 0,1l0 0c0,-1 0,0 0,-1 0,0 0,0 0,0 0,0 0,0 0,0l-1 0z"/>
   <path class="fil9" d="M88 12c0,0 0,0 0,0 0,0 0,-1 0,-1 0,0 0,0 -1,0 0,0 1,0 1,1 0,0 0,0 0,0z"/>
   <path class="fil9" d="M86 27l0 -1c0,0 0,0 0,0 0,-1 0,0 0,-1 0,1 0,1 0,1 0,0 0,0 0,0 0,1 0,1 0,1z"/>
   <path class="fil9" d="M55 42c0,0 0,0 0,-1 0,0 -1,0 -1,0 0,0 0,0 0,0 0,0 1,1 1,1 0,0 0,0 0,0z"/>
   <path class="fil9" d="M56 43c0,-1 0,-1 -1,-1 0,0 0,0 1,1 0,0 0,0 0,0z"/>
   <path class="fil9" d="M74 17c0,-1 0,0 0,-1 -1,0 0,1 -1,0l0 0c0,1 0,1 1,1z"/>
   <path class="fil8" d="M87 11l0 -1 0 0c0,0 0,0 0,1 0,0 0,0 0,0z"/>
   <path class="fil9" d="M92 18c0,0 0,0 0,0 0,0 0,-1 -1,-1 0,0 1,1 1,1z"/>
   <path class="fil1" d="M82 40c0,1 -1,1 -1,1 -1,1 0,1 -1,1 0,-1 0,0 0,-1 0,-1 1,-1 1,-2 0,0 0,0 0,-1 0,0 0,0 -1,0 0,-1 0,0 0,-1 -1,-2 0,-1 -1,-2 0,0 0,0 0,0 0,0 0,-1 0,-1 -1,-1 -1,0 -1,-1 0,0 0,-1 -1,-1 0,-1 0,-1 0,-1 -1,0 -2,0 -2,0 -1,0 -1,1 -1,1 -1,0 -1,1 -1,1 -1,0 -2,1 -2,1 -1,1 -2,1 -3,2l-2 2c0,0 -1,2 -2,2 -1,1 -1,2 -2,2 0,1 0,0 0,1l-1 2 -1 0c1,1 0,0 0,1 -3,6 -5,12 -4,17 0,1 12,5 13,5 2,0 1,-1 1,-4 0,-7 8,15 10,19 1,3 -1,4 1,4 1,-1 0,0 1,-1 1,0 1,-1 1,-2 1,0 1,1 2,0 0,0 0,0 0,0l2 -3c0,0 0,0 0,0 0,0 0,0 0,0 0,0 0,0 1,0 0,-1 0,0 1,-2l1 0c1,-1 1,-1 1,-2l2 -1c0,0 0,0 0,0 1,-1 1,-1 1,-2 0,-1 0,-1 0,-2 -1,0 -3,0 -4,-1 1,0 23,-6 23,-6 1,-1 1,0 1,0 1,-1 1,0 0,-1l-1 -6c0,0 0,0 0,-1l-1 -3c0,0 0,0 0,-1 0,0 0,0 0,0 0,0 0,0 0,0 -1,-1 -1,-3 -1,-3 0,-1 -1,-2 0,-3 1,0 0,0 1,2l3 14c0,2 2,2 -1,3 -1,1 0,9 -1,11l-1 2c-1,1 0,1 0,1 0,0 -1,1 -1,1 0,0 0,0 0,0 0,0 0,0 0,0l-2 2c-1,1 -1,1 -1,1 -1,1 -1,0 -2,1l-1 2c0,0 1,0 2,0 1,0 0,0 1,-1 0,0 1,0 2,-1 1,0 1,0 1,0 2,0 2,-1 4,-1 0,0 0,0 0,0 1,0 1,-1 1,-1 3,0 1,-1 5,-1 1,-1 1,0 3,-1 0,0 0,0 1,0 0,-1 0,0 1,-1 1,-3 0,-1 0,-3 -1,-2 -1,0 -2,-3l0 0c0,0 0,-1 0,-2l-1 0c0,-1 0,-1 0,-2 -1,-1 0,0 -1,0 0,-1 0,-1 0,-1 -1,-2 0,1 -1,-2 0,-1 0,0 0,-1 -1,-1 -1,-1 -1,-2 0,-1 -1,0 -1,-1 0,-2 0,0 -1,-3 0,0 0,0 -1,-1 0,-2 0,-1 0,-2 -1,0 -1,-1 -1,-1 0,-1 0,0 0,-1l-2 -3c0,-1 0,0 0,-1 0,-1 0,-1 -1,-1 0,0 0,-1 0,-1 0,-2 -1,-1 -1,-2 0,0 0,0 0,0 0,-2 0,-1 -1,-2 0,-1 0,-1 0,-1 -1,-1 -1,-1 -1,-3 -1,-1 0,-1 -1,-1l-1 -2c0,0 0,0 0,-1 -1,0 0,0 -1,0 -1,-1 0,-1 -1,-1 0,-1 0,-1 0,-1l-2 -1c0,0 0,0 0,0 0,0 0,0 0,0l0 0c0,0 0,0 0,-1 -1,0 -1,0 -1,0 -1,0 -1,-1 -2,-1 -2,-1 -1,0 -3,-1 -2,-1 -5,0 -6,0 0,-1 -1,-1 -1,-1 0,-1 0,-1 0,-1 -1,-1 -1,-1 -2,-1 0,1 0,2 0,3 0,1 0,0 -1,1 -1,0 -1,1 -1,2 0,0 0,0 0,0l-1 1c0,0 0,0 0,0 0,0 0,0 0,0l-2 3c-1,1 -2,2 -2,2z"/>
  </g>
 </g>
</svg>
