<?xml version="1.0" encoding="UTF-8"?>
<!DOCTYPE svg PUBLIC "-//W3C//DTD SVG 1.1//EN" "http://www.w3.org/Graphics/SVG/1.1/DTD/svg11.dtd">
<!-- Creator: CorelDRAW Home & Student X8 -->
<svg xmlns="http://www.w3.org/2000/svg" xml:space="preserve" width="18.1954mm" height="15mm" version="1.1" style="shape-rendering:geometricPrecision; text-rendering:geometricPrecision; image-rendering:optimizeQuality; fill-rule:evenodd; clip-rule:evenodd"
viewBox="0 0 770 635"
 xmlns:xlink="http://www.w3.org/1999/xlink">
 <defs>
  <style type="text/css">
   <![CDATA[
    .fil0 {fill:#1D1E16}
    .fil1 {fill:#819AA9}
    .fil5 {fill:#858582}
    .fil2 {fill:#D7DFE4}
    .fil3 {fill:#FDFDFD}
    .fil4 {fill:white}
   ]]>
  </style>
 </defs>
 <g id="Capa_x0020_1">
  <metadata id="CorelCorpID_0Corel-Layer"/>
  <g id="_532242896">
   <path class="fil0" d="M175 133c-5,5 -2,4 -10,8 -4,3 -7,3 -12,5 -32,23 -22,56 -25,103 -2,27 -17,24 -4,49 4,7 7,6 12,18 4,7 6,17 10,26 41,95 141,70 169,28l41 -86c-1,-30 -7,14 -4,-50 5,-93 -108,-169 -177,-101z"/>
   <path class="fil1" d="M0 562l1 69c34,6 453,5 474,-1 5,-83 7,-105 -37,-105l-399 0c-34,0 -39,3 -39,37z"/>
   <path class="fil0" d="M478 317c-3,41 -8,38 19,60 0,62 -73,30 -30,-14l0 -40c-53,21 -77,26 -78,95 49,46 112,34 173,34 68,0 140,3 208,0 -8,-136 -43,-98 -79,-129 -8,-5 -12,-11 -13,-9 -1,1 0,18 -2,46 30,14 31,29 24,73l-16 0c-7,-7 -9,11 -6,-14 20,-5 2,-1 10,4 1,-2 3,-2 5,-10 4,-21 -4,-45 -27,-45 -26,-1 -27,22 -33,44 14,1 7,-1 15,6 -7,11 4,7 -12,10 -16,3 -9,-4 -11,-5 -2,-12 2,-31 8,-44 10,-22 15,-12 35,-26l0 -43 -43 -13c-10,17 -32,35 -48,43 -20,-12 -34,-25 -49,-41l-50 18z"/>
   <path class="fil1" d="M513 275c2,-1 4,-5 4,-4 1,1 3,-2 4,-3 1,-1 6,-4 7,-5 -7,-14 -24,-22 -29,-46 -5,-19 -3,-57 -1,-78 46,-9 79,-24 104,-48 23,17 22,28 56,42 4,124 -13,93 -33,130 8,4 7,6 12,10 25,8 57,5 86,2 6,-18 -16,-54 -22,-76 -11,-39 -5,-55 -8,-95 -13,-129 -202,-145 -231,-10 -6,31 1,63 -7,97 -8,30 -25,54 -28,83l86 1z"/>
   <path class="fil2" d="M144 416c-6,7 0,3 -12,10 -4,2 -9,3 -12,4 -49,8 -87,29 -92,85l419 1c-2,-70 -62,-76 -118,-99 -65,-27 -33,20 -138,-6 -27,-7 -22,0 -47,5z"/>
   <path class="fil3" d="M528 263c51,15 47,15 97,0 20,-37 37,-6 33,-130 -34,-14 -33,-25 -56,-42 -25,24 -58,39 -104,48 -2,21 -4,59 1,78 5,24 22,32 29,46z"/>
   <path class="fil4" d="M633 412c6,-22 7,-45 33,-44 23,0 31,24 27,45 -2,8 -4,8 -5,10 -8,-5 10,-9 -10,-4 -3,25 -1,7 6,14l16 0c7,-44 6,-59 -24,-73 2,-28 2,-35 2,-37l0 -9c-3,-1 -6,-2 -10,-4l0 43c-20,14 -25,4 -35,26 -6,13 -10,32 -8,44 2,1 -5,8 11,5 16,-3 5,1 12,-10 -8,-7 -1,-5 -15,-6z"/>
   <path class="fil4" d="M467 323l0 40c-43,44 30,76 30,14 -27,-22 -23,-19 -19,-60l-11 6z"/>
   <path class="fil1" d="M513 275c29,-3 31,9 59,11 30,1 37,-11 65,-13 -5,-4 -4,-6 -12,-10 -50,15 -46,15 -97,0 -1,1 -6,4 -7,5 -1,1 -3,4 -4,3 0,-1 -2,3 -4,4z"/>
   <path class="fil0" d="M463 379c-13,32 38,30 20,-2 -15,-6 -7,-5 -20,2z"/>
   <path class="fil5" d="M120 430c3,-1 8,-2 12,-4 12,-7 6,-3 12,-10 -5,2 -5,1 -12,4 -16,10 -5,3 -12,10z"/>
   <path class="fil5" d="M153 146c5,-2 8,-2 12,-5 8,-4 5,-3 10,-8 -7,2 -7,1 -13,5 -14,9 -1,0 -9,8z"/>
  </g>
 </g>
</svg>
