<?xml version="1.0" encoding="UTF-8"?>
<!DOCTYPE svg PUBLIC "-//W3C//DTD SVG 1.1//EN" "http://www.w3.org/Graphics/SVG/1.1/DTD/svg11.dtd">
<!-- Creator: CorelDRAW Home & Student X8 -->
<svg xmlns="http://www.w3.org/2000/svg" xml:space="preserve" width="17.0368mm" height="17.0001mm" version="1.1" style="shape-rendering:geometricPrecision; text-rendering:geometricPrecision; image-rendering:optimizeQuality; fill-rule:evenodd; clip-rule:evenodd"
viewBox="0 0 246 245"
 xmlns:xlink="http://www.w3.org/1999/xlink">
 <defs>
  <style type="text/css">
   <![CDATA[
    .fil0 {fill:#231E20}
    .fil3 {fill:#7B797B}
    .fil2 {fill:#819AA9}
    .fil1 {fill:white}
   ]]>
  </style>
 </defs>
 <g id="Capa_x0020_1">
  <metadata id="CorelCorpID_0Corel-Layer"/>
  <g id="_531302816">
   <path class="fil0" d="M85 65c-23,5 -20,23 -20,39 0,10 -1,51 0,57 2,8 7,14 13,17 7,3 17,2 26,2 9,0 52,1 57,0 22,-5 19,-25 19,-39 0,-9 1,-52 0,-57 -1,-8 -7,-14 -12,-17 -7,-3 -18,-2 -26,-2 -9,0 -52,-1 -57,0z"/>
   <path class="fil1" d="M86 76c-7,2 -10,6 -10,13 -1,12 -1,66 0,70 1,7 6,10 14,10 11,1 66,1 70,0 13,-3 10,-21 10,-37 0,-9 1,-40 0,-47 -3,-13 -22,-9 -38,-9 -9,0 -40,-2 -46,0z"/>
   <path class="fil2" d="M83 151c0,8 3,12 11,12l58 0c7,0 11,-4 11,-12l0 -57c0,-8 -4,-11 -11,-11l-58 0c-15,-1 -11,15 -11,28 0,14 0,27 0,40z"/>
   <path class="fil1" d="M96 145l8 0 4 -13 13 0c1,2 4,11 5,13l8 0c-1,-4 -14,-42 -15,-45l-8 0c-3,7 -15,40 -15,45z"/>
   <path class="fil0" d="M39 152l-20 0c-5,-10 -19,-7 -19,3 0,9 11,17 19,5l19 0c9,0 7,-2 10,-8l12 0 0 -8c-19,-1 -17,0 -21,8z"/>
   <path class="fil0" d="M19 93l20 0c5,9 2,9 21,8l0 -8 -12 0c-5,-11 0,-7 -29,-8 -3,-9 -19,-7 -19,5 0,10 14,13 19,3z"/>
   <path class="fil0" d="M186 93l0 8 15 -1c3,0 2,-1 5,-7l20 0c6,11 19,6 20,-3 0,-12 -16,-14 -19,-5 -29,1 -24,-3 -30,8l-11 0z"/>
   <path class="fil0" d="M186 152l11 0c4,6 1,8 10,8 6,0 14,-1 19,0 8,11 20,4 20,-5 -1,-5 -4,-8 -8,-9 -7,-1 -10,2 -12,6l-20 0c-1,-3 -2,-7 -5,-7l-15 -1 0 8z"/>
   <path class="fil0" d="M153 198c-2,-2 -1,-9 -1,-12l-8 0c0,14 -1,16 8,19l0 21c-12,8 -4,19 5,19 8,0 14,-12 3,-19 0,-20 3,-26 -7,-28z"/>
   <path class="fil0" d="M92 198c-6,1 -7,3 -7,10 0,6 0,12 0,18 -9,5 -6,19 4,19 8,0 17,-10 5,-19l-1 -21c4,-1 8,-2 8,-6 1,-3 0,-10 0,-13l-7 0c0,3 0,10 -2,12z"/>
   <path class="fil0" d="M93 47c1,2 1,9 1,12l7 0c0,-14 2,-16 -7,-19l-1 -21c10,-4 7,-19 -4,-19 -8,0 -15,12 -4,19 1,20 -3,27 8,28z"/>
   <path class="fil0" d="M144 59l8 0 0 -9c0,-3 0,0 1,-2 9,-7 7,4 7,-29 10,-5 6,-19 -3,-19 -9,0 -17,10 -5,19l0 21c-9,3 -8,5 -8,19z"/>
   <path class="fil0" d="M210 118l-24 1 0 7 24 1c14,18 29,-11 11,-14 -6,-2 -9,2 -11,5z"/>
   <path class="fil0" d="M36 127l24 -1 0 -7 -24 -1c-2,-2 -5,-6 -11,-5 -5,0 -9,4 -9,9 0,6 4,9 8,10 6,2 9,-2 12,-5z"/>
   <path class="fil0" d="M119 210c-10,4 -7,19 4,19 10,0 14,-14 4,-19l0 -24 -8 -1 0 25z"/>
   <path class="fil0" d="M119 35l0 25 7 0c1,-8 1,-17 1,-25 10,-4 7,-19 -4,-19 -11,0 -14,15 -4,19z"/>
   <path class="fil1" d="M142 144c2,1 5,1 7,0l1 -43c-3,-1 -6,-1 -8,0l0 43z"/>
   <path class="fil2" d="M110 125l9 0c0,-3 -3,-11 -4,-13l-5 13z"/>
   <path class="fil3" d="M186 152l0 -8 15 1c-1,-3 -12,-1 -15,-1 -1,3 -1,6 0,8z"/>
   <path class="fil3" d="M201 100l-15 1 0 -8c0,0 0,0 -1,1l1 7c2,0 13,1 15,-1z"/>
   <path class="fil3" d="M101 59l-7 0c0,-3 0,-10 -1,-12l0 13c2,0 3,0 4,0 5,0 3,0 4,-1z"/>
   <path class="fil3" d="M153 198l0 -13 -7 0c-1,0 -1,0 -2,1l8 0c0,3 -1,10 1,12z"/>
   <path class="fil3" d="M92 198c2,-2 2,-9 2,-12l7 0c-1,-1 0,-1 -3,-1 -2,0 -3,0 -5,0l-1 13z"/>
   <path class="fil3" d="M144 59c1,1 1,1 4,1 1,0 3,0 4,0l1 -12c-1,2 -1,-1 -1,2l0 9 -8 0z"/>
  </g>
 </g>
</svg>
