<?xml version="1.0" encoding="UTF-8"?>
<!DOCTYPE svg PUBLIC "-//W3C//DTD SVG 1.1//EN" "http://www.w3.org/Graphics/SVG/1.1/DTD/svg11.dtd">
<!-- Creator: CorelDRAW Home & Student X8 -->
<svg xmlns="http://www.w3.org/2000/svg" xml:space="preserve" width="17.8142mm" height="15.0002mm" version="1.1" style="shape-rendering:geometricPrecision; text-rendering:geometricPrecision; image-rendering:optimizeQuality; fill-rule:evenodd; clip-rule:evenodd"
viewBox="0 0 120 101"
 xmlns:xlink="http://www.w3.org/1999/xlink">
 <defs>
  <style type="text/css">
   <![CDATA[
    .fil0 {fill:#333333}
    .fil1 {fill:#819AA9}
   ]]>
  </style>
 </defs>
 <g id="Capa_x0020_1">
  <metadata id="CorelCorpID_0Corel-Layer"/>
  <g id="_531310832">
   <path class="fil0" d="M4 49c-1,2 -7,7 -3,15 1,2 3,3 3,4 -5,5 -5,13 -1,17 2,2 4,3 8,4l48 11c10,2 7,3 17,-4 10,-5 21,-11 31,-17 5,-3 15,-7 13,-9 -2,-2 -6,1 -7,2 -11,6 -23,13 -33,18 -18,10 -8,8 -31,4 -6,-1 -40,-8 -42,-10 -5,-4 -3,-13 1,-14 3,0 46,10 52,11 9,2 7,2 15,-3 13,-7 27,-15 40,-22 2,-1 6,-3 5,-5 -2,-2 -7,2 -9,3l-43 24c-2,1 -48,-10 -56,-11 -4,-1 -7,-1 -8,-6 -1,-4 1,-8 4,-9 2,-1 18,3 22,4 7,1 10,3 9,-2 -3,-1 -17,-4 -22,-5 -3,0 -8,-1 -10,-3 -3,-1 -4,-6 -2,-10 1,-4 4,-3 9,-2 3,0 7,1 11,2 7,1 15,3 22,5 4,0 8,1 11,2 5,1 9,3 11,1l44 -24c6,-4 7,-4 7,-7 -2,-1 -47,-11 -57,-13 -3,-1 -5,1 -8,3 -2,1 -5,2 -7,4 -12,7 -26,14 -38,21 -3,1 -5,2 -7,4 -2,2 -3,6 -3,10 1,4 2,5 4,7z"/>
   <path class="fil0" d="M53 58c-1,2 0,3 2,3 2,1 3,1 5,1 5,1 6,3 10,0l41 -23c2,-1 7,-3 8,-4 2,-2 2,-4 -1,-4 -1,0 -3,2 -4,3l-45 25c-3,1 -3,1 -5,0 -3,0 -9,-2 -11,-1z"/>
   <path class="fil1" d="M54 20l8 2c11,2 10,3 16,0 2,-2 4,-3 6,-4 -5,-2 -11,-3 -16,-4 -5,-1 -7,3 -14,6z"/>
   <path class="fil1" d="M42 65c1,-1 3,-2 4,-3 2,2 4,4 5,5l0 -19c-1,-1 1,0 -2,-1 0,0 -1,0 -2,0 -2,-1 -3,-1 -5,-1l0 19z"/>
  </g>
 </g>
</svg>
